<svg width="21" height="22" viewBox="0 0 21 22" fill="none" xmlns="http://www.w3.org/2000/svg">
<circle cx="10.4532" cy="11.1257" r="10.4532" fill="#190433"/>
<path d="M11.3697 6.08501C11.3697 5.57808 10.9601 5.16852 10.4532 5.16852C9.94625 5.16852 9.53669 5.57808 9.53669 6.08501V10.2092H5.41247C4.90553 10.2092 4.49597 10.6188 4.49597 11.1257C4.49597 11.6327 4.90553 12.0422 5.41247 12.0422H9.53669V16.1664C9.53669 16.6734 9.94625 17.0829 10.4532 17.0829C10.9601 17.0829 11.3697 16.6734 11.3697 16.1664V12.0422H15.4939C16.0008 12.0422 16.4104 11.6327 16.4104 11.1257C16.4104 10.6188 16.0008 10.2092 15.4939 10.2092H11.3697V6.08501Z" fill="white"/>
</svg>
