<svg width="92" height="103" viewBox="0 0 92 103" fill="none" xmlns="http://www.w3.org/2000/svg">
<path d="M27.0482 10.2342C27.0152 10.2737 26.9193 10.2836 26.5853 10.2836C26.2513 10.2836 26.1554 10.2935 26.1224 10.3331C26.0926 10.3693 26.0099 10.3825 25.8082 10.3825C25.5966 10.3825 25.5305 10.3924 25.5139 10.4319C25.5007 10.4682 25.4379 10.4814 25.2494 10.4814C25.0642 10.4814 25.0014 10.4946 24.9849 10.5308C24.9717 10.5671 24.9154 10.5803 24.7865 10.5803C24.6575 10.5803 24.6046 10.5934 24.5881 10.6297C24.5749 10.666 24.5186 10.6791 24.3864 10.6791C24.2541 10.6791 24.1979 10.6923 24.1847 10.7286C24.1714 10.7615 24.1185 10.778 24.0226 10.778C23.9268 10.778 23.8739 10.7945 23.8606 10.8275C23.8507 10.8571 23.7978 10.8769 23.7251 10.8769C23.6523 10.8769 23.5829 10.9033 23.5432 10.9428C23.5068 10.9791 23.4341 11.0087 23.3746 11.0087C23.3183 11.0087 23.2522 11.0318 23.2258 11.0582C23.196 11.0845 23.1299 11.1076 23.077 11.1076C23.0207 11.1076 22.9546 11.1307 22.9282 11.1571C22.8984 11.1834 22.8488 11.2065 22.819 11.2065C22.786 11.2065 22.7397 11.2296 22.7165 11.2559C22.6934 11.2823 22.6405 11.3054 22.6008 11.3054C22.5578 11.3054 22.5181 11.3284 22.5049 11.3548C22.495 11.3878 22.4421 11.4043 22.3561 11.4043C22.2734 11.4043 22.2205 11.4207 22.2073 11.4537C22.1974 11.4801 22.1544 11.5031 22.1081 11.5031C22.0651 11.5031 22.0221 11.5262 22.0089 11.5526C21.999 11.5789 21.9527 11.602 21.9064 11.602C21.8601 11.602 21.8138 11.6251 21.8039 11.6515C21.7907 11.6778 21.751 11.7009 21.7113 11.7009C21.6716 11.7009 21.6154 11.7306 21.5824 11.7668C21.5526 11.8031 21.503 11.8327 21.4732 11.8327C21.4468 11.8327 21.3773 11.8756 21.3211 11.9316C21.2682 11.9844 21.1955 12.0305 21.1624 12.0305C21.1327 12.0305 21.0864 12.0536 21.0632 12.0799C21.0401 12.1063 20.9872 12.1294 20.9475 12.1294C20.9045 12.1294 20.8648 12.1525 20.8516 12.1788C20.8417 12.2052 20.7987 12.2283 20.759 12.2283C20.716 12.2316 20.6466 12.2744 20.6003 12.3271C20.5573 12.3832 20.4945 12.426 20.4614 12.426C20.4317 12.426 20.3523 12.4788 20.2895 12.5414C20.2233 12.604 20.1506 12.6567 20.1208 12.6567C20.0944 12.6567 20.0051 12.7227 19.929 12.8051C19.8497 12.8875 19.7604 12.9534 19.7306 12.9534C19.7009 12.9534 19.6083 13.0193 19.5289 13.1017C19.4463 13.1841 19.3537 13.25 19.3239 13.25C19.2942 13.25 19.1288 13.3917 18.9602 13.5631C18.7916 13.7345 18.6395 13.8763 18.6229 13.8763C18.6031 13.8763 18.5832 13.8993 18.57 13.9257C18.5601 13.9521 18.527 13.9751 18.4973 13.9751C18.4378 13.9751 17.8558 14.542 17.8558 14.6014C17.8558 14.6475 17.8326 14.6739 17.4689 15.0463C17.3003 15.2177 17.1614 15.3825 17.1614 15.4089C17.1614 15.4386 17.0655 15.5572 16.9465 15.6759C16.8274 15.7945 16.7315 15.9165 16.7315 15.9494C16.7315 15.9791 16.6885 16.0417 16.6323 16.0846C16.5794 16.1307 16.5364 16.1966 16.5331 16.2329C16.5331 16.2724 16.4901 16.3384 16.4339 16.3812C16.381 16.4274 16.338 16.4933 16.3347 16.5295C16.3347 16.5691 16.2917 16.635 16.2355 16.6779C16.1826 16.724 16.1396 16.7932 16.1363 16.8295C16.1363 16.869 16.1165 16.9185 16.09 16.9382C16.0669 16.958 16.0371 17.0206 16.0239 17.0734C16.014 17.1327 15.9842 17.1723 15.9545 17.1723C15.928 17.1723 15.9049 17.1953 15.9049 17.2217C15.9049 17.2481 15.8817 17.2711 15.8553 17.2711C15.8222 17.2711 15.8057 17.3041 15.8057 17.3667C15.8057 17.4195 15.7858 17.4689 15.7561 17.4821C15.7296 17.492 15.7065 17.5348 15.7065 17.581C15.7065 17.6238 15.6833 17.6667 15.6569 17.6798C15.6304 17.6897 15.6073 17.7359 15.6073 17.782C15.6073 17.8282 15.5841 17.8743 15.5577 17.8842C15.5312 17.8974 15.5081 17.9402 15.5081 17.9831C15.5081 18.0292 15.4849 18.0721 15.4585 18.082C15.432 18.0951 15.4089 18.138 15.4089 18.1808C15.4089 18.227 15.3857 18.2698 15.3593 18.2797C15.3328 18.2929 15.3097 18.3325 15.3097 18.3753C15.3097 18.4148 15.2898 18.4676 15.2634 18.4874C15.2369 18.5104 15.2072 18.5862 15.1939 18.6588C15.1807 18.7313 15.151 18.8005 15.1245 18.8104C15.0981 18.8203 15.0782 18.8697 15.0782 18.9191C15.0782 18.9719 15.0551 19.018 15.0286 19.0312C14.9956 19.0411 14.979 19.0938 14.979 19.1795C14.979 19.2619 14.9625 19.3147 14.9294 19.3278C14.903 19.3377 14.8798 19.3839 14.8798 19.43C14.8798 19.4762 14.8567 19.5223 14.8302 19.5322C14.7972 19.5454 14.7806 19.5981 14.7806 19.6805C14.7806 19.7662 14.7641 19.8189 14.731 19.8288C14.698 19.842 14.6814 19.898 14.6814 20.0068C14.6814 20.1057 14.6616 20.1848 14.6318 20.2178C14.6054 20.2441 14.5822 20.3232 14.5822 20.4023C14.5822 20.4913 14.5657 20.5441 14.5326 20.554C14.4962 20.5671 14.483 20.6232 14.483 20.7484C14.483 20.8539 14.4665 20.9363 14.4367 20.9594C14.4103 20.9791 14.3838 21.0813 14.3772 21.1934C14.3673 21.312 14.3408 21.4109 14.3078 21.4505C14.2648 21.4966 14.2516 21.5724 14.2516 21.7504C14.2516 21.9284 14.2383 21.991 14.202 22.0042C14.1623 22.0207 14.1524 22.0998 14.1524 22.4162C14.1524 22.7359 14.1424 22.815 14.1028 22.8282C14.0598 22.8447 14.0532 22.9765 14.0532 23.7313C14.0532 24.4861 14.0598 24.6179 14.1028 24.6344C14.1358 24.6443 14.1524 24.697 14.1524 24.786C14.1524 24.875 14.1689 24.9277 14.202 24.9376C14.2284 24.9508 14.2516 24.9871 14.2516 25.0266C14.2516 25.0629 14.3045 25.142 14.3673 25.2046C14.4301 25.2672 14.483 25.343 14.483 25.376C14.483 25.4452 14.6814 25.643 14.7542 25.643C14.7872 25.643 14.86 25.6957 14.9228 25.7583C15.0022 25.8407 15.065 25.8737 15.1344 25.8737C15.1906 25.8737 15.2535 25.8968 15.2766 25.9231C15.2998 25.9528 15.3725 25.9726 15.4486 25.9726C15.5312 25.9726 15.5841 25.9891 15.5941 26.022C15.6106 26.0616 15.6767 26.0715 15.8916 26.0715C16.1165 26.0715 16.1694 26.0616 16.1694 26.022C16.1694 25.9858 16.2091 25.9726 16.3182 25.9726C16.4207 25.9726 16.4736 25.9561 16.4868 25.9231C16.5001 25.8935 16.5497 25.8737 16.6257 25.8737C16.715 25.8737 16.7679 25.8473 16.8539 25.7583C16.9167 25.6957 16.9861 25.643 17.0126 25.643C17.0787 25.643 17.2937 25.4221 17.2937 25.3529C17.2937 25.32 17.3366 25.2573 17.3929 25.2145C17.4458 25.1684 17.4887 25.0991 17.4921 25.0563C17.4921 25.0167 17.5152 24.9739 17.5417 24.964C17.5747 24.9508 17.5913 24.8981 17.5913 24.8157C17.5913 24.7234 17.6111 24.6772 17.6574 24.6476C17.7202 24.608 17.7235 24.5685 17.7235 23.9752C17.7235 23.4544 17.7334 23.3358 17.7731 23.3028C17.8128 23.2699 17.8227 23.1776 17.8227 22.8743C17.8227 22.5579 17.8326 22.4821 17.8723 22.4656C17.9087 22.4524 17.9219 22.3931 17.9219 22.2151C17.9219 22.0372 17.9351 21.9778 17.9715 21.9646C18.0079 21.9482 18.0211 21.8921 18.0211 21.7537C18.0211 21.6153 18.0343 21.5592 18.0707 21.5428C18.1071 21.5296 18.1203 21.4735 18.1203 21.3417C18.1203 21.2099 18.1335 21.1538 18.1699 21.1406C18.203 21.1275 18.2195 21.0747 18.2195 20.9923C18.2195 20.9066 18.236 20.8539 18.2691 20.844C18.3022 20.8308 18.3187 20.7781 18.3187 20.699C18.3187 20.6298 18.3419 20.5573 18.3683 20.5342C18.3948 20.5111 18.4179 20.465 18.4179 20.432C18.4179 20.3957 18.4477 20.343 18.484 20.3133C18.527 20.2738 18.5502 20.2145 18.5502 20.1354C18.5502 20.0563 18.5667 20.0068 18.5998 19.9936C18.6262 19.9837 18.6494 19.9376 18.6494 19.8915C18.6494 19.8453 18.6725 19.7992 18.699 19.7893C18.7254 19.7761 18.7486 19.7332 18.7486 19.6904C18.7486 19.6443 18.7717 19.6014 18.7982 19.5915C18.8246 19.5783 18.8478 19.5355 18.8478 19.4926C18.8478 19.4465 18.8709 19.4036 18.8974 19.3938C18.9238 19.3806 18.947 19.3377 18.947 19.2949C18.947 19.2487 18.9701 19.2059 18.9966 19.196C19.023 19.1828 19.0462 19.1433 19.0462 19.1037C19.0462 19.0642 19.0925 18.9883 19.1454 18.9356C19.2016 18.8829 19.2446 18.8137 19.2446 18.7807C19.2446 18.7477 19.2743 18.695 19.3107 18.6653C19.3471 18.6324 19.3768 18.5797 19.3768 18.5467C19.3768 18.5137 19.4198 18.4478 19.4727 18.3984C19.5256 18.3489 19.5984 18.2533 19.6348 18.1841C19.6711 18.1149 19.7373 18.0259 19.7836 17.9831C19.8265 17.9435 19.8761 17.8776 19.8861 17.8381C19.8993 17.7985 20.0878 17.5876 20.306 17.3667C20.5209 17.1492 20.6995 16.9514 20.6995 16.9284C20.6995 16.8756 20.7689 16.8097 20.8251 16.8097C20.8516 16.8097 21.0335 16.6449 21.2285 16.4471C21.4203 16.2461 21.6088 16.0846 21.6419 16.0846C21.6749 16.0846 21.7741 16.0088 21.8634 15.9198C21.9527 15.8275 22.0519 15.755 22.0817 15.755C22.1147 15.755 22.1742 15.7088 22.2205 15.6561C22.2668 15.6001 22.333 15.5572 22.3693 15.5572C22.409 15.5572 22.4751 15.5144 22.5181 15.4583C22.571 15.3957 22.6339 15.3628 22.6934 15.3595C22.7496 15.3595 22.7827 15.343 22.7827 15.31C22.7827 15.2771 22.8157 15.2606 22.8752 15.2606C22.9315 15.2573 22.9943 15.2243 23.0472 15.1617C23.0902 15.1057 23.1563 15.0628 23.196 15.0628C23.2324 15.0628 23.282 15.0331 23.3051 14.9969C23.3283 14.9606 23.3812 14.931 23.4241 14.931C23.4671 14.931 23.5101 14.9079 23.5233 14.8815C23.5333 14.8552 23.5729 14.8321 23.6093 14.8321C23.649 14.8321 23.7019 14.809 23.7284 14.7827C23.7581 14.7563 23.8276 14.7332 23.8904 14.7332C23.9565 14.7332 24.0061 14.7134 24.0193 14.6838C24.0293 14.6574 24.0756 14.6343 24.1218 14.6343C24.1681 14.6343 24.2144 14.6113 24.2244 14.5849C24.2376 14.5519 24.2905 14.5355 24.3864 14.5355C24.4823 14.5355 24.5352 14.519 24.5484 14.486C24.5583 14.4531 24.6112 14.4366 24.6972 14.4366C24.7799 14.4366 24.8328 14.4201 24.846 14.3871C24.8559 14.3542 24.9088 14.3377 24.9981 14.3377C25.0874 14.3377 25.1403 14.3212 25.1502 14.2883C25.1667 14.252 25.223 14.2388 25.3585 14.2388C25.5073 14.2388 25.5536 14.2256 25.5867 14.1729C25.6198 14.1202 25.6627 14.107 25.8049 14.107C25.9339 14.107 25.9868 14.0938 26.0033 14.0575C26.0165 14.018 26.0827 14.0081 26.2976 14.0081C26.5059 14.0081 26.5886 13.9949 26.6184 13.9587C26.6547 13.9158 28.3907 13.9092 41.9909 13.9158C56.087 13.9257 57.3204 13.929 57.3303 13.9784C57.3369 14.0114 57.1981 14.1729 56.9897 14.3838C56.798 14.5783 56.6426 14.7563 56.6426 14.7827C56.6426 14.809 56.5467 14.9244 56.4276 15.0397C56.3086 15.1584 56.2127 15.2803 56.2127 15.31C56.2127 15.343 56.1466 15.4353 56.0639 15.5144C55.9812 15.5902 55.9151 15.6825 55.9151 15.7154C55.9151 15.7484 55.8721 15.811 55.8159 15.8539C55.763 15.9 55.72 15.9626 55.7167 15.9956C55.7167 16.0285 55.6638 16.1044 55.601 16.1703C55.5381 16.2329 55.4852 16.312 55.4852 16.3483C55.4852 16.3812 55.4654 16.4241 55.4456 16.4372C55.3993 16.4669 55.3364 16.5592 55.2901 16.668C55.2703 16.7042 55.2405 16.7471 55.224 16.7603C55.2042 16.7701 55.1876 16.8163 55.1876 16.8591C55.1876 16.8987 55.1645 16.9415 55.138 16.9547C55.1116 16.9646 55.0884 17.0009 55.0884 17.0371C55.0884 17.0734 55.0686 17.1228 55.0454 17.1459C55.019 17.169 54.9892 17.2316 54.976 17.281C54.9661 17.3305 54.9396 17.37 54.9231 17.37C54.9033 17.37 54.89 17.3997 54.89 17.4359C54.89 17.4722 54.8603 17.5282 54.8239 17.5579C54.7875 17.5909 54.7578 17.6502 54.7578 17.693C54.7578 17.7326 54.7346 17.7754 54.7082 17.7853C54.6817 17.7985 54.6586 17.8413 54.6586 17.8842C54.6586 17.9303 54.6354 17.9732 54.609 17.9831C54.5825 17.9963 54.5594 18.0391 54.5594 18.082C54.5594 18.1281 54.5362 18.1709 54.5098 18.1808C54.4767 18.194 54.4602 18.2467 54.4602 18.3423C54.4602 18.4379 54.4436 18.4907 54.4106 18.5038C54.3841 18.5137 54.361 18.5599 54.361 18.606C54.361 18.6522 54.3378 18.6983 54.3114 18.7082C54.2783 18.7214 54.2618 18.7741 54.2618 18.8565C54.2618 18.9422 54.2452 18.9949 54.2122 19.0048C54.1791 19.018 54.1626 19.0708 54.1626 19.1499C54.1626 19.2191 54.1394 19.2916 54.113 19.3147C54.0799 19.341 54.0634 19.4135 54.0634 19.5157C54.0634 19.6377 54.0468 19.6937 53.9972 19.7332C53.9543 19.7728 53.9311 19.8321 53.9311 19.9112C53.9311 19.9903 53.9146 20.0398 53.8815 20.053C53.8451 20.0661 53.8319 20.1222 53.8319 20.2639C53.8319 20.3826 53.8121 20.4814 53.7823 20.521C53.7526 20.5605 53.736 20.666 53.7327 20.8242C53.7327 21.0055 53.7195 21.0681 53.6831 21.0813C53.6434 21.0978 53.6335 21.1637 53.6335 21.3747C53.6335 21.5757 53.6203 21.6581 53.5839 21.6878C53.5409 21.724 53.5343 25.376 53.5277 54.1006L53.5178 86.4707L53.3954 86.4806C53.2995 86.4871 53.2698 86.4806 53.2698 86.441C53.2698 86.4113 53.2566 86.3883 53.2433 86.3883C53.207 86.3883 52.7407 85.9235 52.7407 85.8873C52.7407 85.8741 52.7176 85.8609 52.6911 85.8609C52.6647 85.8609 52.6415 85.8378 52.6415 85.8115C52.6415 85.7818 52.6118 85.762 52.5589 85.762C52.4993 85.762 52.3836 85.6631 52.1191 85.3995C51.9207 85.1984 51.7322 85.0369 51.7058 85.0369C51.676 85.0369 51.4941 84.882 51.3023 84.6908C51.1106 84.4997 50.9353 84.3447 50.9089 84.3447C50.8824 84.3447 50.6972 84.1832 50.4922 83.9822C50.2872 83.7844 50.102 83.6196 50.0756 83.6196C50.0491 83.6196 49.864 83.4548 49.6623 83.2571C49.4606 83.056 49.2754 82.8945 49.2456 82.8945C49.2159 82.8945 49.12 82.8187 49.034 82.7297C48.9447 82.6341 48.8455 82.5649 48.8058 82.5649C48.7695 82.5649 48.7298 82.5418 48.7199 82.5155C48.7066 82.4891 48.6637 82.466 48.6207 82.466C48.5744 82.466 48.5314 82.443 48.5215 82.4166C48.5082 82.3836 48.4553 82.3671 48.3594 82.3671C48.2635 82.3671 48.2106 82.3507 48.1974 82.3177C48.171 82.2452 47.5559 82.2452 47.5295 82.3177C47.5129 82.354 47.4567 82.3671 47.3179 82.3671C47.179 82.3671 47.1228 82.3803 47.1062 82.4166C47.0963 82.443 47.05 82.466 47.0037 82.466C46.9574 82.466 46.9211 82.4792 46.9211 82.499C46.9211 82.5155 46.8715 82.5517 46.8119 82.5781C46.6797 82.6308 46.0944 83.2076 46.0944 83.2801C46.0944 83.3098 45.9522 83.4713 45.7803 83.6427C45.6083 83.8108 45.4661 83.9756 45.4661 84.0053C45.4661 84.0349 45.324 84.1997 45.152 84.3711C44.9305 84.5919 44.8379 84.704 44.8379 84.76C44.8379 84.8095 44.818 84.8391 44.7883 84.8391C44.7618 84.8391 44.7387 84.8622 44.7387 84.8886C44.7387 84.915 44.7155 84.938 44.6891 84.938C44.6626 84.938 44.6395 84.9611 44.6395 84.9875C44.6395 85.0138 44.6263 85.0369 44.6097 85.0369C44.5601 85.0369 44.2328 85.3929 44.1633 85.5214C44.127 85.5873 43.9682 85.7686 43.8062 85.9268C43.6475 86.085 43.5152 86.2366 43.5152 86.2663C43.5152 86.296 43.373 86.4575 43.2011 86.6289C43.0292 86.8003 42.887 86.9684 42.887 86.998C42.887 87.031 42.7448 87.1925 42.5728 87.3606C42.391 87.532 42.2587 87.6902 42.2587 87.7264C42.2587 87.7825 42.1298 87.9374 42.0802 87.9374C42.0702 87.9374 40.8765 86.7574 39.4315 85.3171C37.9865 83.8767 36.7829 82.6967 36.7565 82.6967C36.73 82.6967 36.654 82.644 36.5911 82.5814C36.4986 82.4924 36.4424 82.466 36.3564 82.466C36.2836 82.466 36.2307 82.4462 36.2208 82.4166C36.2043 82.3803 36.1481 82.3671 36.0092 82.3671C35.8703 82.3671 35.8141 82.354 35.7976 82.3177C35.7711 82.2485 35.4603 82.2485 35.4338 82.3177C35.4206 82.354 35.3611 82.3671 35.1825 82.3671C35.004 82.3671 34.9444 82.3803 34.9312 82.4166C34.918 82.4462 34.8684 82.466 34.8155 82.466C34.7527 82.466 34.7196 82.4825 34.7196 82.5155C34.7196 82.5451 34.6898 82.5649 34.6435 82.5649C34.5311 82.5649 33.8929 83.1977 33.8929 83.3065C33.8929 83.3526 33.8797 83.3889 33.8632 83.3889C33.8103 83.3889 33.3639 83.8668 33.3639 83.9229C33.3639 83.9558 33.3473 83.9822 33.3308 83.9822C33.311 83.9822 33.2878 84.0053 33.2746 84.0349C33.2647 84.0646 33.1456 84.1964 33.0101 84.3283C32.8778 84.4601 32.7687 84.5886 32.7687 84.6183C32.7687 84.648 32.6496 84.7864 32.5042 84.9314C32.3587 85.0765 32.2396 85.2182 32.2396 85.2511C32.2396 85.2841 32.1074 85.439 31.9453 85.5972C31.7833 85.7554 31.6411 85.9202 31.6279 85.9631C31.6147 86.0059 31.4923 86.151 31.3601 86.2828C31.2245 86.4146 31.1154 86.5465 31.1154 86.5728C31.1154 86.6025 30.9963 86.7442 30.8508 86.886C30.7053 87.031 30.5863 87.1694 30.5863 87.1991C30.5863 87.2749 30.1102 87.7396 30.0374 87.7396C29.9614 87.7396 29.5943 87.3705 29.5943 87.298C29.5943 87.2716 29.4521 87.1068 29.2802 86.9354C29.1082 86.764 28.9661 86.6025 28.9661 86.5761C28.9661 86.5498 28.8239 86.385 28.6519 86.2103C28.48 86.0356 28.3378 85.8708 28.3378 85.8444C28.3378 85.8148 28.2055 85.6631 28.0402 85.5016C27.8749 85.3401 27.7426 85.1819 27.7426 85.149C27.7426 85.116 27.6004 84.9545 27.4285 84.7897C27.2565 84.6216 27.1143 84.4601 27.1143 84.4271C27.1143 84.3975 26.9722 84.2294 26.8002 84.058C26.6283 83.8866 26.4861 83.7185 26.4861 83.6855C26.4861 83.6526 26.4431 83.5867 26.3869 83.5438C26.334 83.4977 26.2877 83.4449 26.2877 83.4252C26.2877 83.4054 26.2645 83.3889 26.2381 83.3889C26.2116 83.3889 26.1885 83.3658 26.1885 83.3395C26.1885 83.3131 26.1653 83.29 26.1389 83.29C26.1124 83.29 26.0893 83.267 26.0893 83.2406C26.0893 83.2142 26.0661 83.1911 26.0397 83.1911C26.0132 83.1911 25.9901 83.1681 25.9901 83.1417C25.9901 83.1153 25.9669 83.0923 25.9405 83.0923C25.914 83.0923 25.881 83.0527 25.8711 83C25.8446 82.8879 25.7652 82.7956 25.6958 82.7956C25.633 82.7923 25.461 82.6506 25.461 82.5979C25.461 82.5814 25.4412 82.5649 25.4147 82.5649C25.3883 82.5649 25.3618 82.5418 25.3486 82.5155C25.3387 82.4825 25.2858 82.466 25.1998 82.466C25.1171 82.466 25.0642 82.4495 25.051 82.4166C25.0411 82.3836 24.9882 82.3671 24.8989 82.3671C24.8096 82.3671 24.7567 82.3507 24.7468 82.3177C24.717 82.2452 24.0888 82.2452 24.059 82.3177C24.0491 82.3507 23.9962 82.3671 23.9102 82.3671C23.8276 82.3671 23.7747 82.3836 23.7614 82.4166C23.7515 82.443 23.7052 82.466 23.6589 82.466C23.6126 82.466 23.5663 82.4891 23.5564 82.5155C23.5432 82.5418 23.5068 82.5649 23.4671 82.5649C23.4308 82.5649 23.3514 82.6176 23.2886 82.6803C23.2258 82.7429 23.1563 82.7956 23.1299 82.7956C23.1034 82.7956 23.0141 82.8615 22.9348 82.9439C22.8521 83.0263 22.7595 83.0923 22.7298 83.0923C22.7 83.0923 22.581 83.1878 22.4619 83.3065C22.3462 83.4252 22.2238 83.5207 22.1908 83.5207C22.161 83.5207 22.0684 83.5867 21.9891 83.6691C21.9097 83.7515 21.8171 83.8174 21.7841 83.8174C21.751 83.8174 21.6386 83.9064 21.5328 84.0151C21.4236 84.1239 21.3145 84.2129 21.2848 84.2129C21.2517 84.2129 21.1558 84.2854 21.0698 84.3777C20.9806 84.4667 20.8847 84.5425 20.8549 84.5425C20.8251 84.5425 20.7127 84.6315 20.6069 84.7403C20.4978 84.849 20.3854 84.938 20.3523 84.938C20.3159 84.938 20.22 85.0105 20.1341 85.1028C20.0481 85.1918 19.9555 85.2676 19.9257 85.2676C19.896 85.2676 19.7869 85.3566 19.681 85.4654C19.5719 85.5742 19.4595 85.6631 19.4264 85.6631C19.3934 85.6631 19.2942 85.7357 19.2049 85.8279C19.1156 85.9169 19.0197 85.9927 18.99 85.9927C18.9635 85.9927 18.8511 86.0817 18.742 86.1905C18.6097 86.3256 18.5204 86.3883 18.4675 86.3883C18.4146 86.3883 18.3848 86.408 18.3848 86.4377C18.3848 86.4641 18.3617 86.4871 18.3352 86.4871C18.3088 86.4871 18.2856 86.5102 18.2856 86.5366C18.2856 86.563 18.2625 86.586 18.236 86.586C18.2096 86.586 18.1864 86.6091 18.1864 86.6355C18.1864 86.6684 18.1534 86.6849 18.0939 86.6849C18.041 86.6849 17.9881 86.7113 17.9616 86.7508C17.9385 86.7871 17.9021 86.8069 17.8723 86.797C17.8293 86.7772 17.8227 83.7449 17.8227 59.0941C17.8227 34.5158 17.8161 31.4077 17.7731 31.3912C17.7401 31.378 17.7235 31.3253 17.7235 31.2297C17.7235 31.1473 17.7037 31.0715 17.6739 31.0484C17.6475 31.0253 17.6177 30.9561 17.6045 30.8902C17.5913 30.8144 17.5317 30.7287 17.4425 30.6397C17.3664 30.5639 17.2937 30.4782 17.2837 30.4453C17.2705 30.4156 17.2341 30.3793 17.2044 30.3661C17.1713 30.3563 17.082 30.2804 17.006 30.2013C16.9266 30.1255 16.8373 30.0596 16.8043 30.0596C16.7712 30.0596 16.715 30.0365 16.6786 30.0102C16.6456 29.9838 16.553 29.9607 16.4736 29.9607C16.3744 29.9607 16.3182 29.941 16.2785 29.8948C16.2289 29.8388 16.1793 29.8289 15.9214 29.8289C15.6602 29.8289 15.6172 29.8355 15.5808 29.8948C15.5544 29.941 15.5048 29.9607 15.4287 29.9607C15.3692 29.9607 15.2998 29.9838 15.2766 30.0102C15.2535 30.0365 15.2006 30.0596 15.1609 30.0596C15.1179 30.0596 15.0782 30.0827 15.065 30.1091C15.0551 30.1354 15.0187 30.1585 14.9823 30.1585C14.9063 30.1585 14.3838 30.6628 14.3838 30.7353C14.3838 30.7617 14.3541 30.8144 14.3177 30.8507C14.2813 30.8869 14.2516 30.9462 14.2516 30.9825C14.2516 31.0188 14.2284 31.0583 14.202 31.0682C14.1623 31.0847 14.1524 31.1506 14.1524 31.3813C14.1524 31.612 14.1424 31.6813 14.1028 31.6944C14.0598 31.7109 14.0532 35.0234 14.0532 61.2068C14.0532 87.3804 14.0598 90.7027 14.1028 90.739C14.1391 90.7687 14.1524 90.8478 14.1524 91.0191C14.1524 91.2037 14.1656 91.2631 14.202 91.2795C14.235 91.2894 14.2516 91.3422 14.2516 91.4246C14.2516 91.53 14.2714 91.5696 14.3673 91.6487C14.4301 91.7014 14.483 91.7706 14.483 91.8003C14.483 91.8728 14.8005 92.1892 14.8732 92.1892C14.9063 92.1892 14.9691 92.2321 15.0154 92.2815C15.0617 92.3375 15.1443 92.387 15.2171 92.4002C15.2832 92.4101 15.3527 92.443 15.3758 92.4694C15.4023 92.5023 15.4816 92.5188 15.6073 92.5188C15.7462 92.5188 15.8024 92.532 15.8189 92.5683C15.842 92.6309 16.0041 92.6309 16.09 92.5683C16.1297 92.5386 16.2289 92.5221 16.3513 92.5188C16.5133 92.5188 16.5563 92.5056 16.5927 92.4529C16.6158 92.4167 16.6687 92.387 16.7117 92.387C16.7547 92.387 16.7977 92.3639 16.8109 92.3375C16.8208 92.3112 16.8605 92.2881 16.8969 92.2881C16.9332 92.2881 17.0291 92.2222 17.1052 92.1398C17.1845 92.0574 17.2738 91.9915 17.3036 91.9915C17.3333 91.9915 17.4259 91.9255 17.5053 91.8431C17.5879 91.7607 17.6805 91.6948 17.7103 91.6948C17.7434 91.6948 17.8591 91.5992 17.9715 91.4806C18.0839 91.3619 18.203 91.2663 18.236 91.2663C18.2691 91.2663 18.3617 91.2004 18.4411 91.118C18.5171 91.0356 18.6064 90.9697 18.6362 90.9697C18.6626 90.9697 18.7849 90.8741 18.9073 90.7555C19.0263 90.6368 19.1487 90.5412 19.1751 90.5412C19.238 90.5379 19.3768 90.4292 19.3768 90.3797C19.3768 90.3599 19.4 90.3435 19.4264 90.3435C19.4529 90.3435 19.476 90.3204 19.476 90.294C19.476 90.2644 19.5058 90.2446 19.5587 90.2446C19.6215 90.2446 19.7009 90.1853 19.8464 90.0303C19.9588 89.9117 20.0778 89.8161 20.1109 89.8161C20.144 89.8161 20.2366 89.7502 20.3126 89.6678C20.392 89.5854 20.4812 89.5195 20.511 89.5195C20.5408 89.5195 20.6598 89.4239 20.7788 89.3052C20.8946 89.1866 21.0136 89.091 21.0434 89.091C21.0731 89.091 21.1823 89.002 21.2881 88.8932C21.3972 88.7845 21.5096 88.6955 21.5427 88.6955C21.5757 88.6955 21.6683 88.6295 21.7477 88.5471C21.8237 88.4647 21.913 88.3988 21.9461 88.3988C21.9758 88.3988 22.0916 88.3032 22.204 88.1846C22.3164 88.0659 22.4355 87.9703 22.4685 87.9703C22.5016 87.9703 22.5942 87.9044 22.6735 87.822C22.7661 87.7231 22.8422 87.6737 22.8984 87.6737C22.9513 87.6737 22.9811 87.6539 22.9811 87.6243C22.9811 87.5979 22.9943 87.5748 23.0141 87.5748C23.0307 87.5748 23.1133 87.499 23.1993 87.41C23.2853 87.3177 23.3812 87.2452 23.4175 87.2452C23.4506 87.2452 23.5432 87.1793 23.6192 87.0969C23.6986 87.0145 23.7912 86.9486 23.8276 86.9486C23.8606 86.9453 23.9268 86.9024 23.9731 86.8497C24.0855 86.7113 24.1979 86.7179 24.3665 86.8794C24.4426 86.9519 24.5021 87.031 24.5021 87.0606C24.5021 87.087 24.6145 87.2222 24.7501 87.3606C24.8857 87.4957 24.9981 87.6342 24.9981 87.6638C24.9981 87.6902 25.1403 87.855 25.3122 88.0231C25.4842 88.1945 25.6264 88.356 25.6264 88.3856C25.6264 88.412 25.7685 88.5801 25.9405 88.7548C26.1124 88.9295 26.2546 89.0976 26.2546 89.1305C26.2546 89.1602 26.3737 89.3052 26.5192 89.4502C26.6646 89.5953 26.7837 89.7337 26.7837 89.7568C26.7837 89.7831 26.9193 89.9381 27.0813 90.1029C27.2466 90.271 27.3789 90.4292 27.3789 90.4555C27.3789 90.4819 27.5211 90.6434 27.693 90.8148C27.865 90.9862 28.0071 91.151 28.0071 91.1774C28.0071 91.2565 28.9561 92.1892 29.0355 92.1892C29.0719 92.1892 29.1082 92.2123 29.1182 92.2387C29.1314 92.265 29.1678 92.2881 29.2074 92.2881C29.2438 92.2881 29.3 92.3112 29.3331 92.3408C29.4158 92.4167 30.4607 92.4167 30.54 92.3408C30.5665 92.3112 30.6392 92.2881 30.6954 92.2881C30.7649 92.2881 30.8409 92.2519 30.9137 92.1892C30.9732 92.1332 31.0459 92.0903 31.0691 92.0903C31.1286 92.0903 31.7767 91.4377 31.7767 91.3751C31.7767 91.3487 31.909 91.1938 32.0743 91.029C32.2363 90.8675 32.3785 90.6994 32.3917 90.6632C32.405 90.6236 32.4579 90.5511 32.5075 90.4984C32.5604 90.4489 32.6034 90.3929 32.6034 90.3764C32.6034 90.3567 32.6265 90.3435 32.653 90.3435C32.6794 90.3435 32.7026 90.3204 32.7026 90.294C32.7026 90.2677 32.7257 90.2446 32.7522 90.2446C32.7786 90.2446 32.8018 90.2215 32.8018 90.1951C32.8018 90.1688 32.8183 90.1457 32.8348 90.1457C32.8778 90.1457 32.9836 90.0402 33.0101 89.971C33.02 89.9414 33.0464 89.915 33.0663 89.915C33.0828 89.915 33.0993 89.8886 33.0993 89.8557C33.0993 89.8194 33.2415 89.6513 33.4135 89.4766C33.5854 89.3052 33.7276 89.1371 33.7276 89.1075C33.7276 89.0778 33.8698 88.9163 34.0417 88.7482C34.2137 88.5801 34.3559 88.4153 34.3559 88.3856C34.3559 88.3527 34.4914 88.1945 34.6535 88.033C34.8188 87.8715 34.9511 87.7198 34.9511 87.6935C34.9511 87.6671 35.0899 87.5023 35.2619 87.3276C35.4338 87.1562 35.5793 86.9782 35.5859 86.9387C35.5925 86.8827 35.6223 86.8629 35.7017 86.8563C35.8009 86.8464 35.953 86.9914 38.4858 89.5162C40.2913 91.3158 41.1874 92.1892 41.2337 92.1892C41.27 92.1892 41.3097 92.2123 41.3196 92.2387C41.3329 92.2716 41.3858 92.2881 41.4684 92.2881C41.5544 92.2881 41.6073 92.3046 41.6172 92.3375C41.647 92.4101 42.7051 92.4101 42.7349 92.3375C42.7448 92.3046 42.7977 92.2881 42.8804 92.2881C42.9564 92.2881 43.0292 92.2683 43.0523 92.2387C43.0754 92.2123 43.1184 92.1892 43.1482 92.1892C43.211 92.1859 43.3499 92.0772 43.3499 92.0277C43.3499 92.0079 43.373 91.9915 43.3995 91.9915C43.426 91.9915 43.4491 91.9684 43.4491 91.942C43.4491 91.9157 43.4722 91.8926 43.4987 91.8926C43.5252 91.8926 43.5483 91.8695 43.5483 91.8431C43.5483 91.8168 43.5615 91.7937 43.5814 91.7937C43.6343 91.7937 44.0443 91.352 44.0443 91.2927C44.0443 91.2631 44.1865 91.0983 44.3584 90.9269C44.5304 90.7555 44.6726 90.5907 44.6726 90.561C44.6726 90.5313 44.8147 90.3698 44.9867 90.1984C45.1586 90.0303 45.3008 89.8655 45.3008 89.8326C45.3008 89.7996 45.443 89.6381 45.6149 89.47C45.7869 89.3052 45.9291 89.1404 45.9291 89.1075C45.9291 89.0745 46.0646 88.9163 46.2267 88.7548C46.392 88.5933 46.5243 88.4417 46.5243 88.412C46.5243 88.3856 46.6665 88.2208 46.8384 88.0494C47.0103 87.8748 47.1525 87.7133 47.1525 87.6836C47.1525 87.6539 47.2716 87.5155 47.4137 87.3738C47.5592 87.232 47.6849 87.0903 47.6948 87.0541C47.708 87.0211 47.7643 86.9387 47.8238 86.8728C47.9891 86.6882 48.0585 86.7047 48.3594 86.998C48.495 87.1332 48.6306 87.2452 48.6603 87.2452C48.6868 87.2452 48.872 87.4067 49.0704 87.6078C49.2688 87.8055 49.4572 87.9703 49.487 87.9703C49.5135 87.9703 49.7019 88.1351 49.9003 88.3329C50.0987 88.534 50.2839 88.6955 50.3137 88.6955C50.3434 88.6955 50.5319 88.857 50.7303 89.058C50.9287 89.2558 51.1139 89.4206 51.1436 89.4206C51.1701 89.4206 51.3817 89.6052 51.6066 89.8326C51.8347 90.06 52.043 90.2446 52.0695 90.2446C52.0992 90.2446 52.2844 90.4061 52.4861 90.6071C52.6845 90.8049 52.8664 90.9697 52.8895 90.9697C52.9127 90.9697 52.949 90.9928 52.9722 91.0191C52.9953 91.0455 53.0251 91.0686 53.0383 91.0686C53.0549 91.0686 53.2268 91.2301 53.4252 91.4311C53.6236 91.6289 53.8121 91.7937 53.8418 91.7937C53.8716 91.7937 53.984 91.8827 54.0898 91.9915C54.2122 92.1134 54.3114 92.1892 54.3577 92.1892C54.3974 92.1892 54.437 92.2123 54.4469 92.2387C54.4602 92.265 54.5032 92.2881 54.5461 92.2881C54.5924 92.2881 54.6354 92.3112 54.6453 92.3375C54.6619 92.3738 54.7148 92.387 54.8437 92.387C54.9859 92.387 55.0289 92.4002 55.062 92.4529C55.1215 92.5452 55.4588 92.5452 55.601 92.4529C55.6572 92.4167 55.7531 92.387 55.8192 92.387C55.8986 92.387 55.9482 92.3705 55.9614 92.3375C55.9713 92.3112 56.0143 92.2881 56.0606 92.2881C56.1036 92.2881 56.1466 92.265 56.1598 92.2387C56.1697 92.2123 56.2094 92.1892 56.2491 92.1892C56.3383 92.1892 56.874 91.6619 56.874 91.5696C56.874 91.5333 56.8972 91.4971 56.9236 91.4839C56.9501 91.474 56.9732 91.4279 56.9732 91.3817C56.9732 91.3356 56.9964 91.2894 57.0228 91.2795C57.0559 91.2663 57.0724 91.2136 57.0724 91.1312C57.0724 91.0455 57.0889 90.9928 57.122 90.9829C57.165 90.9664 57.1716 88.0593 57.1716 65.1126C57.1716 50.8936 57.1815 39.239 57.1915 39.2093C57.2113 39.1599 58.1702 39.1566 67.7396 39.1566C77.0775 39.1566 78.2679 39.15 78.2679 39.1071C78.2679 39.0709 78.3076 39.0577 78.4134 39.0577C78.5126 39.0577 78.5655 39.0412 78.5787 39.0083C78.5887 38.9819 78.6316 38.9588 78.6713 38.9588C78.7176 38.9588 78.787 38.9127 78.8433 38.8435C78.8962 38.7808 78.9656 38.7281 78.9921 38.7281C79.0681 38.7281 79.293 38.5106 79.293 38.4413C79.293 38.4051 79.336 38.3425 79.3922 38.2996C79.4451 38.2535 79.4881 38.1843 79.4914 38.148C79.4914 38.1085 79.5145 38.059 79.541 38.0359C79.5674 38.0129 79.5906 37.9437 79.5906 37.8843C79.5906 37.8085 79.6104 37.7591 79.6567 37.7327C79.7228 37.6899 79.7228 37.6536 79.7228 29.8553C79.7228 22.4459 79.7195 22.0174 79.6666 21.9877C79.617 21.9613 79.6071 21.8954 79.5972 21.5757C79.5873 21.3021 79.5707 21.1835 79.5377 21.1571C79.5079 21.1308 79.4914 21.0484 79.4914 20.8967C79.4914 20.7286 79.4781 20.6693 79.4418 20.6528C79.4054 20.6396 79.3922 20.5803 79.3922 20.4089C79.3922 20.2441 79.3789 20.1683 79.3426 20.1387C79.3161 20.1156 79.293 20.0431 79.293 19.9739C79.293 19.8948 79.2764 19.842 79.2434 19.8288C79.207 19.8157 79.1938 19.7596 79.1938 19.6311C79.1938 19.5025 79.1805 19.4498 79.1442 19.4333C79.1111 19.4234 79.0946 19.3707 79.0946 19.2817C79.0946 19.1927 79.078 19.14 79.045 19.1301C79.0119 19.1169 78.9954 19.0642 78.9954 18.9686C78.9954 18.873 78.9788 18.8203 78.9458 18.8071C78.9193 18.7972 78.8962 18.7543 78.8962 18.7082C78.8962 18.6653 78.8763 18.6225 78.8499 18.6126C78.8234 18.6027 78.7904 18.5269 78.7804 18.4445C78.7672 18.3654 78.7374 18.2896 78.711 18.2797C78.6845 18.2698 78.6647 18.227 78.6647 18.1808C78.6647 18.138 78.6416 18.0951 78.6151 18.082C78.582 18.0721 78.5655 18.0193 78.5655 17.9303C78.5655 17.8413 78.549 17.7886 78.5159 17.7787C78.4895 17.7655 78.4663 17.7227 78.4663 17.6798C78.4663 17.6337 78.4432 17.5909 78.4167 17.581C78.3903 17.5678 78.3671 17.5216 78.3671 17.4689C78.3671 17.4162 78.344 17.37 78.3175 17.3568C78.2911 17.3469 78.2679 17.3041 78.2679 17.2645C78.2646 17.2217 78.2216 17.1525 78.1687 17.1063C78.1125 17.0635 78.0695 17.0009 78.0695 16.9679C78.0695 16.9349 78.0397 16.8789 78.0034 16.8427C77.967 16.8064 77.9372 16.7471 77.9372 16.7141C77.9372 16.6812 77.9141 16.6449 77.8876 16.6317C77.8612 16.6218 77.838 16.579 77.838 16.5394C77.8347 16.4966 77.7918 16.4274 77.7388 16.3812C77.6826 16.3384 77.6396 16.2757 77.6396 16.2428C77.6396 16.2098 77.5967 16.1373 77.5405 16.0846C77.4875 16.0318 77.4412 15.9593 77.4412 15.9264C77.4412 15.8934 77.3983 15.8308 77.3421 15.7879C77.2792 15.7352 77.2462 15.6726 77.2429 15.6133C77.2429 15.5638 77.2296 15.5243 77.2131 15.5243C77.1602 15.5243 76.813 15.1485 76.813 15.0892C76.813 15.0595 76.6576 14.8815 76.4691 14.6937C76.2806 14.5058 76.1186 14.3179 76.1054 14.2784C76.0723 14.1762 75.6656 13.7774 75.5928 13.7774C75.5631 13.7774 75.3779 13.6126 75.1828 13.4148C74.9679 13.194 74.8026 13.0523 74.7629 13.0523C74.7265 13.0523 74.6372 12.9863 74.5612 12.9039C74.4851 12.8215 74.3958 12.7556 74.3628 12.7556C74.3297 12.7556 74.2537 12.7029 74.1908 12.6403C74.128 12.5776 74.0486 12.5249 74.0156 12.5249C73.9825 12.5216 73.9164 12.4788 73.8701 12.426C73.8271 12.37 73.761 12.3271 73.7213 12.3271C73.6816 12.3271 73.6155 12.2843 73.5725 12.2283C73.5262 12.1755 73.4568 12.1327 73.4138 12.1294C73.3741 12.1294 73.3311 12.1063 73.3212 12.0799C73.308 12.0536 73.2683 12.0305 73.2286 12.0305C73.1889 12.0305 73.1195 11.9876 73.0765 11.9316C73.0302 11.8789 72.9608 11.836 72.9211 11.8327C72.8781 11.8327 72.8285 11.8031 72.8054 11.7668C72.7822 11.7306 72.7293 11.7009 72.6863 11.7009C72.6466 11.7009 72.6037 11.6778 72.5937 11.6515C72.5805 11.6218 72.5309 11.602 72.478 11.602C72.4152 11.602 72.3821 11.5855 72.3821 11.5526C72.3821 11.5196 72.349 11.5031 72.2862 11.5031C72.2333 11.5031 72.1837 11.4834 72.1705 11.4537C72.1606 11.4273 72.1143 11.4043 72.068 11.4043C72.0217 11.4043 71.9754 11.3812 71.9655 11.3548C71.9522 11.3219 71.8993 11.3054 71.8167 11.3054C71.7307 11.3054 71.6778 11.2889 71.6679 11.2559C71.6546 11.2296 71.6117 11.2065 71.5687 11.2065C71.5224 11.2065 71.4794 11.1834 71.4695 11.1571C71.4563 11.1241 71.4033 11.1076 71.324 11.1076C71.2545 11.1076 71.1818 11.0845 71.1587 11.0582C71.1355 11.0318 71.0661 11.0087 71.0065 11.0087C70.9338 11.0087 70.8743 10.9857 70.8379 10.9428C70.7982 10.9 70.7387 10.8769 70.6594 10.8769C70.58 10.8769 70.5304 10.8604 70.5172 10.8275C70.5072 10.7945 70.4543 10.778 70.3651 10.778C70.2758 10.778 70.2229 10.7615 70.213 10.7286C70.1964 10.6923 70.1402 10.6791 69.998 10.6791C69.8459 10.6791 69.8029 10.6693 69.8029 10.6297C69.8029 10.5901 69.7599 10.5803 69.6045 10.5803C69.4557 10.5803 69.3995 10.5671 69.3863 10.5308C69.3698 10.4946 69.3102 10.4814 69.1416 10.4814C68.9829 10.4814 68.9068 10.4682 68.8771 10.4319C68.844 10.3924 68.7547 10.3825 68.477 10.3825C68.2058 10.3825 68.1099 10.3693 68.0703 10.3331C68.0273 10.2902 67.776 10.2836 66.202 10.2836C64.6314 10.2836 64.3768 10.277 64.3338 10.2342C64.2908 10.1913 62.1745 10.1847 45.6877 10.1847C29.1975 10.1847 27.0846 10.1913 27.0482 10.2342ZM68.0703 13.9587C68.0868 13.9949 68.1496 14.0081 68.3348 14.0081C68.5233 14.0081 68.5861 14.0213 68.5993 14.0575C68.6159 14.0938 68.6754 14.107 68.8473 14.107C69.0391 14.107 69.0821 14.1169 69.1152 14.1729C69.1482 14.2223 69.1945 14.2388 69.2937 14.2388C69.3863 14.2388 69.4392 14.2553 69.4524 14.2883C69.4624 14.3212 69.5153 14.3377 69.6012 14.3377C69.6839 14.3377 69.7368 14.3542 69.75 14.3871C69.7599 14.4201 69.8129 14.4366 69.9021 14.4366C69.9914 14.4366 70.0443 14.4531 70.0542 14.486C70.0675 14.519 70.1204 14.5355 70.203 14.5355C70.289 14.5355 70.3419 14.5519 70.3518 14.5849C70.3651 14.6113 70.4081 14.6343 70.451 14.6343C70.4973 14.6343 70.5403 14.6574 70.5502 14.6838C70.5635 14.7101 70.6031 14.7332 70.6461 14.7332C70.6858 14.7332 70.7387 14.7563 70.7619 14.7827C70.785 14.809 70.8313 14.8321 70.8644 14.8321C70.8941 14.8321 70.9437 14.8552 70.9735 14.8815C70.9999 14.9079 71.0462 14.931 71.0727 14.931C71.1024 14.931 71.152 14.9606 71.1818 14.9969C71.2149 15.0331 71.2711 15.0628 71.3108 15.0628C71.3504 15.0628 71.3901 15.0859 71.4033 15.1123C71.4133 15.1386 71.4563 15.1617 71.4992 15.1617C71.5422 15.1617 71.6084 15.2012 71.6546 15.2606C71.7009 15.3133 71.7671 15.3562 71.8034 15.3595C71.8431 15.3595 71.9093 15.4023 71.9522 15.4583C71.9985 15.5111 72.0647 15.5539 72.101 15.5572C72.1374 15.5572 72.2399 15.633 72.3259 15.722C72.4152 15.8143 72.5078 15.8868 72.5375 15.8868C72.607 15.8868 74.1016 17.3799 74.1016 17.4491C74.1016 17.4788 74.1677 17.5678 74.2504 17.6436C74.333 17.7227 74.3992 17.815 74.3992 17.8512C74.4025 17.8842 74.4454 17.9501 74.4984 17.9963C74.5546 18.0391 74.5975 18.1083 74.5975 18.1512C74.5975 18.1907 74.6174 18.2369 74.6405 18.25C74.6637 18.2632 74.7199 18.3357 74.7629 18.4083C74.8059 18.4808 74.8621 18.5533 74.8852 18.5665C74.9084 18.5797 74.9282 18.6291 74.9282 18.6686C74.9282 18.7115 74.9514 18.7543 74.9778 18.7675C75.0043 18.7774 75.0274 18.8236 75.0274 18.8697C75.0274 18.9158 75.0506 18.962 75.077 18.9719C75.1035 18.9851 75.1266 19.0279 75.1266 19.0708C75.1266 19.1169 75.1498 19.1597 75.1762 19.1696C75.2027 19.1828 75.2258 19.229 75.2258 19.2817C75.2258 19.3344 75.249 19.3806 75.2754 19.3938C75.3019 19.4036 75.325 19.4465 75.325 19.4926C75.325 19.5355 75.3482 19.5783 75.3746 19.5915C75.4077 19.6014 75.4242 19.6541 75.4242 19.7332C75.4242 19.8189 75.444 19.8783 75.4903 19.9178C75.53 19.9508 75.5565 20.0134 75.5565 20.076C75.5565 20.1321 75.5796 20.198 75.6061 20.2243C75.6325 20.254 75.6557 20.3232 75.6557 20.3826C75.6557 20.4452 75.6788 20.5111 75.7053 20.5342C75.7317 20.5573 75.7549 20.6298 75.7549 20.6957C75.7549 20.7616 75.778 20.844 75.8045 20.877C75.8342 20.9165 75.8541 21.0154 75.8541 21.1308C75.8541 21.2659 75.8673 21.3219 75.9037 21.3384C75.9433 21.3516 75.9533 21.4208 75.9533 21.6515C75.9533 21.8822 75.9632 21.9482 76.0029 21.9646C76.0459 21.9811 76.0525 22.7524 76.0459 28.7313L76.0359 35.4815L66.6319 35.4914C59.1291 35.498 57.2212 35.4914 57.1981 35.4585C57.1848 35.4354 57.1716 32.469 57.1716 28.8698C57.1716 23.0886 57.1782 22.3173 57.2212 22.2811C57.2576 22.2514 57.2708 22.1657 57.2708 21.9317C57.2708 21.6647 57.2807 21.612 57.3369 21.5559C57.3899 21.5032 57.4031 21.4472 57.4031 21.2626C57.4031 21.0912 57.4163 21.0319 57.4527 21.0154C57.489 21.0022 57.5023 20.9462 57.5023 20.8143C57.5023 20.6825 57.5155 20.6265 57.5519 20.6133C57.5849 20.6001 57.6015 20.5474 57.6015 20.465C57.6015 20.3793 57.618 20.3265 57.6511 20.3166C57.6841 20.3035 57.7007 20.2507 57.7007 20.1683C57.7007 20.0826 57.7172 20.0299 57.7503 20.02C57.7833 20.0068 57.7999 19.9541 57.7999 19.8552C57.7999 19.7563 57.8164 19.7036 57.8495 19.6904C57.8759 19.6772 57.8991 19.6344 57.8991 19.5915C57.8991 19.5454 57.9222 19.5025 57.9487 19.4926C57.9751 19.4795 57.9983 19.4366 57.9983 19.3938C57.9983 19.3476 58.0214 19.3048 58.0479 19.2949C58.0743 19.2817 58.0975 19.2454 58.0975 19.2125C58.0975 19.1795 58.1272 19.1202 58.1636 19.0839C58.2 19.0477 58.2297 18.9883 58.2297 18.9521C58.2297 18.9158 58.2529 18.8763 58.2793 18.8664C58.3058 18.8532 58.3289 18.8104 58.3289 18.7675C58.3289 18.7214 58.3521 18.6785 58.3785 18.6686C58.4083 18.6555 58.4281 18.606 58.4281 18.5533C58.4281 18.4907 58.4447 18.4577 58.4777 18.4577C58.5042 18.4577 58.5273 18.4379 58.5273 18.4116C58.5273 18.3885 58.5505 18.3489 58.5769 18.3259C58.6034 18.3028 58.6265 18.2599 58.6265 18.227C58.6265 18.194 58.6497 18.1611 58.6761 18.1479C58.7026 18.138 58.7257 18.0984 58.7257 18.0589C58.7257 18.0193 58.7919 17.927 58.8911 17.8348C58.9836 17.7491 59.0564 17.6535 59.0564 17.6238C59.0564 17.5941 59.1225 17.5019 59.2052 17.4228C59.2879 17.3404 59.354 17.2514 59.354 17.225C59.354 17.1558 60.4253 16.0846 60.4981 16.0846C60.5311 16.0846 60.6502 15.989 60.7626 15.8703C60.875 15.7517 60.9974 15.6561 61.0304 15.6561C61.0635 15.6528 61.1263 15.61 61.1726 15.5572C61.2156 15.5012 61.2818 15.4583 61.3214 15.4583C61.3611 15.4583 61.4272 15.4155 61.4702 15.3595C61.5231 15.2968 61.586 15.2639 61.6455 15.2606C61.7017 15.2606 61.7348 15.2441 61.7348 15.2111C61.7348 15.1815 61.7678 15.1617 61.8207 15.1617C61.8769 15.1617 61.9398 15.1221 62.0092 15.0463C62.0654 14.9804 62.1415 14.931 62.1845 14.931C62.2241 14.931 62.2638 14.9079 62.277 14.8815C62.287 14.8552 62.33 14.8321 62.3762 14.8321C62.4192 14.8321 62.4622 14.809 62.4754 14.7827C62.4854 14.7563 62.5284 14.7332 62.5746 14.7332C62.6176 14.7332 62.6606 14.7101 62.6738 14.6838C62.6838 14.6508 62.7367 14.6343 62.8259 14.6343C62.9152 14.6343 62.9681 14.6179 62.9781 14.5849C62.9913 14.5585 63.0343 14.5355 63.0773 14.5355C63.1235 14.5355 63.1665 14.5124 63.1765 14.486C63.1897 14.4531 63.2426 14.4366 63.3385 14.4366C63.4344 14.4366 63.4873 14.4201 63.5005 14.3871C63.5104 14.3542 63.5633 14.3377 63.6493 14.3377C63.732 14.3377 63.7849 14.3212 63.7981 14.2883C63.8113 14.252 63.8642 14.2388 63.9899 14.2388C64.1255 14.2388 64.1817 14.2223 64.2247 14.1729C64.2643 14.1235 64.3205 14.107 64.4429 14.107C64.5454 14.107 64.6181 14.0905 64.6446 14.0575C64.6744 14.0213 64.7537 14.0081 64.9422 14.0081C65.1307 14.0081 65.21 13.9949 65.2398 13.9587C65.2762 13.9158 65.4746 13.9092 66.6683 13.9092C67.8686 13.9092 68.0537 13.9158 68.0703 13.9587Z" fill="white"/>
<path d="M25.838 21.4407C25.8215 21.4769 25.7652 21.4901 25.6264 21.4901C25.4875 21.4901 25.4313 21.5033 25.4147 21.5396C25.4048 21.5659 25.3651 21.589 25.3288 21.589C25.2891 21.589 25.2097 21.6417 25.1502 21.7044C25.0874 21.767 25.0146 21.8197 24.9882 21.8197C24.9154 21.8197 24.7005 22.0373 24.7005 22.1098C24.7005 22.1427 24.6575 22.2054 24.6013 22.2482C24.5484 22.2943 24.5054 22.3636 24.5021 22.4064C24.5021 22.446 24.479 22.4888 24.4525 22.4987C24.4194 22.5119 24.4029 22.5646 24.4029 22.6437C24.4029 22.7129 24.3798 22.7854 24.3533 22.8085C24.3136 22.8415 24.3037 22.9338 24.3037 23.2601C24.3037 23.5798 24.3136 23.682 24.3533 23.7182C24.3798 23.7479 24.4029 23.8171 24.4029 23.8764C24.4029 23.939 24.4261 24.005 24.4525 24.028C24.479 24.0511 24.5021 24.1006 24.5021 24.1401C24.5054 24.1764 24.5484 24.2456 24.6013 24.2917C24.6575 24.3346 24.7005 24.3972 24.7005 24.4334C24.7005 24.5027 24.9254 24.7202 24.9981 24.7202C25.0246 24.7202 25.0973 24.7729 25.1535 24.8356C25.2362 24.9246 25.2858 24.9509 25.3784 24.9509C25.4511 24.9509 25.504 24.9707 25.5139 25.0004C25.5272 25.0333 25.5801 25.0498 25.676 25.0498C25.7719 25.0498 25.8248 25.0663 25.838 25.0992C25.8545 25.1421 26.9655 25.1487 35.576 25.1487C44.1832 25.1487 45.2975 25.1421 45.314 25.0992C45.324 25.0663 45.3769 25.0498 45.4628 25.0498C45.5455 25.0498 45.5984 25.0333 45.6116 25.0004C45.6216 24.9674 45.6745 24.9509 45.7538 24.9509C45.8629 24.9509 45.8993 24.9278 46.0283 24.7861C46.1109 24.6938 46.2035 24.6213 46.2333 24.6213C46.306 24.6213 46.4251 24.5093 46.4251 24.44C46.4251 24.4137 46.478 24.3445 46.5408 24.2818C46.6036 24.2192 46.6565 24.1401 46.6565 24.1038C46.6565 24.0643 46.6797 24.028 46.7061 24.0149C46.7392 24.005 46.7557 23.9522 46.7557 23.8632C46.7557 23.7742 46.7723 23.7215 46.8053 23.7116C46.845 23.6951 46.8549 23.6127 46.8549 23.27C46.8549 22.9272 46.845 22.8448 46.8053 22.8283C46.7723 22.8184 46.7557 22.7657 46.7557 22.6767C46.7557 22.5877 46.7392 22.535 46.7061 22.5251C46.6797 22.5119 46.6565 22.4756 46.6565 22.4361C46.6565 22.3998 46.6036 22.3207 46.5408 22.2581C46.478 22.1955 46.4251 22.123 46.4251 22.0966C46.4251 22.0274 46.2167 21.8197 46.1473 21.8197C46.1209 21.8197 46.0481 21.767 45.9853 21.7044C45.9225 21.6417 45.8431 21.589 45.8067 21.589C45.767 21.589 45.7307 21.5659 45.7174 21.5396C45.7042 21.5033 45.648 21.4901 45.5157 21.4901C45.3835 21.4901 45.3273 21.4769 45.314 21.4407C45.2975 21.3978 44.1832 21.3912 35.576 21.3912C26.9655 21.3912 25.8545 21.3978 25.838 21.4407Z" fill="white"/>
<path d="M22.9216 29.8949C22.8984 29.9312 22.8521 29.9608 22.819 29.9608C22.786 29.9608 22.7397 29.9839 22.7165 30.0103C22.6934 30.0366 22.6405 30.0597 22.6008 30.0597C22.5578 30.0597 22.5181 30.0828 22.5049 30.1091C22.495 30.1355 22.4586 30.1586 22.4222 30.1586C22.3363 30.1586 21.9229 30.5706 21.9229 30.6563C21.9229 30.6925 21.8998 30.7288 21.8733 30.7387C21.8469 30.7519 21.8237 30.7881 21.8237 30.8211C21.8237 30.854 21.794 30.9134 21.7576 30.9496C21.7212 30.9859 21.6915 31.0452 21.6915 31.0815C21.6915 31.1177 21.6683 31.1573 21.6419 31.1672C21.6022 31.1836 21.5923 31.2693 21.5923 31.6583C21.5923 32.0472 21.6022 32.1329 21.6419 32.1494C21.675 32.1593 21.6915 32.212 21.6915 32.2911C21.6915 32.3768 21.7113 32.4361 21.7576 32.4757C21.794 32.5053 21.8237 32.5548 21.8237 32.5811C21.8237 32.6602 22.4652 33.2898 22.5446 33.2898C22.581 33.2898 22.6173 33.3129 22.6306 33.3392C22.6405 33.3656 22.6868 33.3887 22.7331 33.3887C22.7794 33.3887 22.8257 33.4117 22.8356 33.4381C22.8521 33.4744 22.9083 33.4875 23.0637 33.4875C23.2059 33.4875 23.282 33.504 23.3117 33.537C23.3481 33.5798 24.7733 33.5864 35.7678 33.5864C46.769 33.5864 48.1809 33.5798 48.1974 33.537C48.214 33.5007 48.2702 33.4875 48.4091 33.4875C48.5479 33.4875 48.6041 33.4744 48.6207 33.4381C48.6306 33.4117 48.6736 33.3887 48.7199 33.3887C48.7629 33.3887 48.8058 33.3656 48.8191 33.3392C48.829 33.3129 48.8687 33.2898 48.9084 33.2898C48.9976 33.2898 49.5333 32.7492 49.5333 32.6602C49.5333 32.6273 49.5531 32.5877 49.5763 32.5746C49.659 32.5218 49.7317 32.3669 49.7317 32.2417C49.7317 32.1658 49.7515 32.0933 49.7813 32.0703C49.854 32.0109 49.854 31.3287 49.7813 31.2594C49.7549 31.2298 49.7317 31.1606 49.7317 31.1012C49.7317 31.0386 49.7086 30.9727 49.6821 30.9496C49.6557 30.9266 49.6325 30.8837 49.6325 30.8507C49.6325 30.8211 49.5895 30.7519 49.5333 30.6991C49.4804 30.6464 49.4341 30.5772 49.4341 30.5475C49.4341 30.4585 49.1927 30.2377 49.0142 30.1619C48.9778 30.1421 48.9348 30.1124 48.9216 30.096C48.9117 30.0762 48.8753 30.0597 48.8422 30.0597C48.8092 30.0597 48.7629 30.0366 48.7397 30.0103C48.7166 29.9839 48.6471 29.9608 48.5876 29.9608C48.5149 29.9608 48.4553 29.9378 48.419 29.8949C48.3628 29.829 48.3198 29.829 35.662 29.829C23.0009 29.829 22.9645 29.829 22.9216 29.8949Z" fill="white"/>
<path d="M35.3512 57.0143C22.7232 57.0209 22.6703 57.0209 22.6107 57.0868C22.5744 57.1264 22.5049 57.1527 22.4421 57.1527C22.3627 57.1527 22.3131 57.1791 22.2536 57.2516C22.2073 57.3043 22.1445 57.3505 22.1114 57.3505C22.0321 57.3505 21.6915 57.6867 21.6915 57.7658C21.6882 57.802 21.6452 57.8647 21.5923 57.9108C21.5328 57.9569 21.4931 58.0229 21.4931 58.0657C21.4931 58.1086 21.4699 58.1514 21.4435 58.1613C21.4071 58.1778 21.3939 58.2305 21.3939 58.3591C21.3939 58.4876 21.3807 58.5436 21.3443 58.5568C21.2715 58.5865 21.2715 59.1138 21.3443 59.1435C21.3774 59.1567 21.3939 59.2061 21.3939 59.305C21.3939 59.394 21.4137 59.4665 21.4435 59.4929C21.4699 59.516 21.4931 59.5819 21.4931 59.6379C21.4964 59.7104 21.5229 59.7632 21.5923 59.8225C21.6485 59.8653 21.6915 59.928 21.6915 59.9642C21.6915 60.0301 21.9031 60.2378 22.0023 60.2707C22.0354 60.2839 22.1081 60.3334 22.1577 60.3861C22.2106 60.4388 22.2867 60.4817 22.333 60.4817C22.376 60.4817 22.4189 60.5048 22.4322 60.5311C22.4421 60.5575 22.4851 60.5806 22.5314 60.5806C22.5744 60.5806 22.6173 60.6036 22.6306 60.63C22.6471 60.6729 24.1152 60.6794 35.576 60.6794C47.0335 60.6794 48.505 60.6729 48.5215 60.63C48.5314 60.6036 48.5744 60.5806 48.6207 60.5806C48.6637 60.5806 48.7067 60.5575 48.7199 60.5311C48.7298 60.5048 48.7728 60.4817 48.8191 60.4817C48.8621 60.4817 48.9051 60.4586 48.9183 60.4322C48.9282 60.4059 48.9679 60.3828 49.0076 60.3828C49.0968 60.3828 49.5333 59.9411 49.5333 59.8521C49.5333 59.8159 49.5565 59.7796 49.5829 59.7697C49.6094 59.7566 49.6325 59.7137 49.6325 59.6709C49.6325 59.6247 49.6557 59.5819 49.6821 59.572C49.7152 59.5588 49.7317 59.5061 49.7317 59.427C49.7317 59.3577 49.7549 59.2852 49.7813 59.2622C49.821 59.2292 49.8309 59.1402 49.8309 58.8601C49.8309 58.5832 49.821 58.4876 49.7813 58.4513C49.7549 58.4217 49.7317 58.3525 49.7317 58.2931C49.7317 58.2305 49.7086 58.1646 49.6821 58.1415C49.6557 58.1185 49.6325 58.0756 49.6325 58.0426C49.6325 58.0097 49.6094 57.9668 49.5829 57.9438C49.5565 57.9207 49.5333 57.8745 49.5333 57.8416C49.5333 57.7658 49.0175 57.2516 48.9414 57.2516C48.9084 57.2516 48.8621 57.2318 48.8422 57.2055C48.8224 57.1824 48.7596 57.1527 48.7067 57.1395C48.6504 57.1297 48.6075 57.1 48.6075 57.0736C48.6075 57.0374 48.5446 57.0242 48.3198 57.0143C48.1578 57.0077 42.3249 57.0077 35.3512 57.0143Z" fill="white"/>
<path d="M23.1199 65.4421C23.0935 65.4718 23.0174 65.4916 22.9182 65.4916C22.8157 65.4916 22.743 65.5081 22.7165 65.541C22.6934 65.5674 22.6206 65.5905 22.5545 65.5905C22.4652 65.5938 22.4156 65.6168 22.3528 65.6893C22.3098 65.7454 22.247 65.7882 22.2172 65.7882C22.1445 65.7882 21.8237 66.0948 21.8237 66.1673C21.8237 66.1936 21.7708 66.2694 21.708 66.3354C21.6452 66.398 21.5923 66.4804 21.5923 66.5166C21.5923 66.5529 21.5691 66.5892 21.5427 66.599C21.5063 66.6155 21.4931 66.6716 21.4931 66.81C21.4931 66.9484 21.4798 67.0045 21.4435 67.0209C21.4038 67.0341 21.3939 67.0967 21.3939 67.3011C21.3939 67.5021 21.4038 67.5648 21.4435 67.5813C21.4765 67.5911 21.4931 67.6439 21.4931 67.7329C21.4931 67.8219 21.5096 67.8746 21.5427 67.8845C21.5691 67.8977 21.5923 67.9438 21.5923 67.9965C21.5923 68.0493 21.6154 68.0954 21.6419 68.1086C21.6683 68.1185 21.6915 68.1548 21.6915 68.1877C21.6915 68.2734 22.2404 68.8205 22.323 68.8205C22.3594 68.8205 22.3958 68.8436 22.4057 68.87C22.4189 68.8964 22.4652 68.9194 22.5181 68.9194C22.571 68.9194 22.6173 68.9425 22.6305 68.9689C22.6405 69.0018 22.6934 69.0183 22.7826 69.0183C22.8719 69.0183 22.9248 69.0348 22.9347 69.0677C22.9513 69.1106 24.3996 69.1172 35.6785 69.1172C46.9574 69.1172 48.4057 69.1106 48.4223 69.0677C48.4322 69.0348 48.4851 69.0183 48.5711 69.0183C48.6537 69.0183 48.7066 69.0018 48.7198 68.9689C48.7298 68.9425 48.7728 68.9194 48.8124 68.9194C48.8554 68.9194 48.9315 68.8733 48.9844 68.8205C49.0373 68.7645 49.1034 68.7217 49.1299 68.7217C49.1993 68.7217 49.4341 68.4778 49.4341 68.402C49.4341 68.369 49.4771 68.3031 49.5333 68.2602C49.5862 68.2141 49.6292 68.1449 49.6325 68.102C49.6325 68.0625 49.6556 68.0196 49.6821 68.0097C49.7151 67.9965 49.7317 67.9438 49.7317 67.8647C49.7317 67.7955 49.7548 67.723 49.7813 67.6999C49.821 67.6669 49.8309 67.578 49.8309 67.2978C49.8309 67.0209 49.821 66.9253 49.7813 66.8891C49.7515 66.8594 49.7317 66.777 49.7317 66.6946C49.7317 66.5793 49.7118 66.5265 49.6325 66.4408C49.5796 66.3815 49.5333 66.3057 49.5333 66.2727C49.5333 66.2431 49.5101 66.2068 49.4837 66.1969C49.4572 66.1837 49.4341 66.1574 49.4341 66.131C49.4341 66.1046 49.4109 66.0849 49.3845 66.0849C49.358 66.0849 49.3349 66.0618 49.3349 66.0354C49.3349 66.0091 49.3117 65.986 49.2853 65.986C49.2588 65.986 49.2357 65.9629 49.2357 65.9365C49.2357 65.9102 49.2125 65.8871 49.1861 65.8871C49.1596 65.8871 49.1365 65.864 49.1365 65.8377C49.1365 65.8113 49.1166 65.7882 49.0902 65.7882C49.0637 65.7882 49.0373 65.7652 49.0241 65.7388C49.0141 65.7124 48.9712 65.6893 48.9249 65.6893C48.8819 65.6893 48.8389 65.6663 48.8257 65.6399C48.8157 65.6135 48.7694 65.5905 48.7232 65.5905C48.6769 65.5905 48.6306 65.5674 48.6206 65.541C48.6041 65.5048 48.5512 65.4916 48.4223 65.4916C48.2933 65.4916 48.2371 65.4784 48.2239 65.4421C48.2073 65.3993 46.7822 65.3927 35.6818 65.3927C24.7402 65.396 23.1563 65.4026 23.1199 65.4421Z" fill="white"/>
</svg>
